<?xml version="1.0" encoding="UTF-8"?>
<svg width="21px" height="17px" viewBox="0 0 21 17" version="1.1" xmlns="http://www.w3.org/2000/svg" xmlns:xlink="http://www.w3.org/1999/xlink">
    <!-- Generator: Sketch 49.3 (51167) - http://www.bohemiancoding.com/sketch -->
    <title>Path</title>
    <desc>Created with Sketch.</desc>
    <defs></defs>
    <g id="Page-1" stroke="none" stroke-width="1" fill="none" fill-rule="evenodd">
        <g id="Product-1" transform="translate(-866.000000, -391.000000)" stroke="#333333" stroke-width="2">
            <g id="product/wishlist-button/normal" transform="translate(852.000000, 376.000000)">
                <path d="M31.1990007,17.0714291 C32.0025761,17.7633968 32.5494456,18.5892814 32.8396256,19.5491076 C33.0851625,20.4196476 33.0851625,21.3069155 32.8396256,22.2109378 C32.5940887,23.1149602 32.1699858,23.8794614 31.5673042,24.5044645 L25.7079294,30.4642857 C25.3507848,30.8214304 24.9266819,31 24.4356081,31 C23.9445342,31 23.5204313,30.8214304 23.1632867,30.4642857 L17.3039119,24.5044645 C16.7012304,23.8794614 16.2771275,23.1149602 16.0315905,22.2109378 C15.7860536,21.3069155 15.7972142,20.4196476 16.0650727,19.5491076 C16.3329312,18.5892814 16.8686401,17.7633968 17.6722155,17.0714291 C18.2972186,16.5357122 19.0226577,16.2008941 19.8485547,16.0669649 C20.6744516,15.9330356 21.4947559,15.9999993 22.3094921,16.2678577 C23.1242283,16.5357162 23.8329265,16.9709797 24.4356081,17.5736612 C25.0382896,16.9709797 25.7469879,16.5357162 26.5617241,16.2678577 C27.3764602,15.9999993 28.1967645,15.9330356 29.0226615,16.0669649 C29.8485584,16.2008941 30.5739976,16.5357122 31.1990007,17.0714291 Z" id="Path"></path>
            </g>
        </g>
    </g>
</svg>