<?xml version="1.0" encoding="UTF-8"?>
<svg width="10px" height="9px" viewBox="0 0 10 9" version="1.1" xmlns="http://www.w3.org/2000/svg" xmlns:xlink="http://www.w3.org/1999/xlink">
    <!-- Generator: Sketch 49.3 (51167) - http://www.bohemiancoding.com/sketch -->
    <title>heart-black</title>
    <desc>Created with Sketch.</desc>
    <defs></defs>
    <g id="Symbols" stroke="none" stroke-width="1" fill="none" fill-rule="evenodd">
        <g id="home/add-to-wishlist-icon/normal" transform="translate(-6.000000, -8.000000)" fill="#333333">
            <path d="M15.0025351,8.85066625 C15.4311086,9.2197157 15.7227724,9.66018747 15.8775351,10.1720948 C16.0084881,10.6363828 16.0084881,11.1095923 15.8775351,11.5917376 C15.746582,12.0738828 15.5203938,12.4816168 15.1989637,12.8149518 L12.0739638,15.9935231 C11.8834866,16.1840002 11.6572984,16.2792374 11.3953924,16.2792374 C11.1334863,16.2792374 10.9072981,16.1840002 10.716821,15.9935231 L7.5918211,12.8149518 C7.27039093,12.4816168 7.04420273,12.0738828 6.9132497,11.5917376 C6.78229667,11.1095923 6.78824899,10.6363828 6.93110684,10.1720948 C7.07396469,9.66018747 7.35967611,9.2197157 7.78824966,8.85066625 C8.12158465,8.56495055 8.50848553,8.38638091 8.9489639,8.31495199 C9.38944228,8.24352306 9.82693788,8.27923699 10.2614638,8.42209484 C10.6959898,8.56495269 11.0739622,8.79709322 11.3953924,9.11852338 C11.7168225,8.79709322 12.0947949,8.56495269 12.5293209,8.42209484 C12.9638469,8.27923699 13.4013425,8.24352306 13.8418208,8.31495199 C14.2822992,8.38638091 14.6692001,8.56495055 15.0025351,8.85066625 Z" id="heart-black"></path>
        </g>
    </g>
</svg>