<?xml version="1.0" encoding="UTF-8"?>
<svg width="13px" height="15px" viewBox="0 0 13 15" version="1.1" xmlns="http://www.w3.org/2000/svg" xmlns:xlink="http://www.w3.org/1999/xlink">
    <!-- Generator: Sketch 49.3 (51167) - http://www.bohemiancoding.com/sketch -->
    <title>wishlist/icon/trash</title>
    <desc>Created with Sketch.</desc>
    <defs></defs>
    <g id="Page-1" stroke="none" stroke-width="1" fill="none" fill-rule="evenodd">
        <g id="Mobile-2" transform="translate(-38.000000, -329.000000)" fill="#FF6C6C">
            <g id="All-products" transform="translate(20.000000, 217.000000)">
                <g id="wishlist/product-list/normal">
                    <g id="Remove" transform="translate(18.000000, 110.000000)">
                        <g id="wishlist/link/harm">
                            <g id="wishlist/icon/trash" transform="translate(0.000000, 2.000000)">
                                <path d="M5.25,5.890625 L5.25,11.796875 C5.25,11.8880213 5.21809928,11.9654945 5.15429688,12.0292969 C5.09049447,12.0930993 5.01302129,12.125 4.921875,12.125 L4.265625,12.125 C4.17447871,12.125 4.09700553,12.0930993 4.03320312,12.0292969 C3.96940072,11.9654945 3.9375,11.8880213 3.9375,11.796875 L3.9375,5.890625 C3.9375,5.79947871 3.96940072,5.72200553 4.03320312,5.65820312 C4.09700553,5.59440072 4.17447871,5.5625 4.265625,5.5625 L4.921875,5.5625 C5.01302129,5.5625 5.09049447,5.59440072 5.15429688,5.65820312 C5.21809928,5.72200553 5.25,5.79947871 5.25,5.890625 Z M7.984375,5.5625 C8.07552129,5.5625 8.15299447,5.59440072 8.21679688,5.65820312 C8.28059928,5.72200553 8.3125,5.79947871 8.3125,5.890625 L8.3125,11.796875 C8.3125,11.8880213 8.28059928,11.9654945 8.21679688,12.0292969 C8.15299447,12.0930993 8.07552129,12.125 7.984375,12.125 L7.328125,12.125 C7.23697871,12.125 7.15950553,12.0930993 7.09570312,12.0292969 C7.03190072,11.9654945 7,11.8880213 7,11.796875 L7,5.890625 C7,5.79947871 7.03190072,5.72200553 7.09570312,5.65820312 C7.15950553,5.59440072 7.23697871,5.5625 7.328125,5.5625 L7.984375,5.5625 Z M11.59375,2.9375 C11.7760426,2.9375 11.9309889,3.00130145 12.0585938,3.12890625 C12.1861986,3.25651105 12.25,3.41145742 12.25,3.59375 L12.25,3.921875 C12.25,4.01302129 12.2180993,4.09049447 12.1542969,4.15429688 C12.0904945,4.21809928 12.0130213,4.25 11.921875,4.25 L11.375,4.25 L11.375,13.4375 C11.375,13.8020852 11.2473971,14.1119779 10.9921875,14.3671875 C10.7369779,14.6223971 10.4270852,14.75 10.0625,14.75 L2.1875,14.75 C1.82291484,14.75 1.51302211,14.6223971 1.2578125,14.3671875 C1.00260289,14.1119779 0.875,13.8020852 0.875,13.4375 L0.875,4.25 L0.328125,4.25 C0.236978711,4.25 0.159505527,4.21809928 0.095703125,4.15429688 C0.0319007227,4.09049447 0,4.01302129 0,3.921875 L0,3.59375 C0,3.41145742 0.0638014453,3.25651105 0.19140625,3.12890625 C0.319011055,3.00130145 0.473957422,2.9375 0.65625,2.9375 L2.6796875,2.9375 L3.609375,1.37890625 C3.7369798,1.17838441 3.90104066,1.02343805 4.1015625,0.9140625 C4.30208434,0.804686953 4.52083215,0.75 4.7578125,0.75 L7.4921875,0.75 C7.72916785,0.75 7.94791566,0.804686953 8.1484375,0.9140625 C8.34895934,1.02343805 8.5130202,1.17838441 8.640625,1.37890625 L9.5703125,2.9375 L11.59375,2.9375 Z M4.2109375,2.9375 L8.0390625,2.9375 L7.546875,2.14453125 C7.51041648,2.08984348 7.46484402,2.0625 7.41015625,2.0625 L4.83984375,2.0625 C4.78515598,2.0625 4.73958352,2.08984348 4.703125,2.14453125 L4.2109375,2.9375 Z M10.0625,4.25 L2.1875,4.25 L2.1875,13.2734375 C2.1875,13.309896 2.20572898,13.346354 2.2421875,13.3828125 C2.27864602,13.419271 2.31510398,13.4375 2.3515625,13.4375 L9.8984375,13.4375 C9.93489602,13.4375 9.97135398,13.419271 10.0078125,13.3828125 C10.044271,13.346354 10.0625,13.309896 10.0625,13.2734375 L10.0625,4.25 Z" id="trash"></path>
                            </g>
                        </g>
                    </g>
                </g>
            </g>
        </g>
    </g>
</svg>